<svg width="30" height="11" viewBox="0 0 30 11" fill="none" xmlns="http://www.w3.org/2000/svg">
<path d="M29.8485 7.19214C29.7405 6.57958 29.7459 5.75269 29.4913 5.16598C29.3271 4.80626 28.9028 4.68673 28.6169 4.49422C28.1677 4.23332 27.7102 3.92531 27.2611 3.66441C25.5704 2.65072 23.8798 1.63703 22.1892 0.623336C22.3607 0.738841 22.3803 1.7071 22.4135 1.89558C22.4468 2.08406 22.4663 3.05231 22.6379 3.16782C23.4873 3.69822 24.3774 4.17289 25.2268 4.70329C16.889 4.86168 8.50229 5.02869 0.172774 5.2342C0.270527 5.21696 0.466496 7.75741 0.613126 7.73156C8.19288 7.56108 15.8215 7.38199 23.4584 7.25002C22.5058 7.56374 21.521 7.98033 20.6505 8.47391C20.5122 8.54689 20.7345 9.23645 20.8914 9.84039C20.9579 10.2174 21.0244 10.5943 21.0908 10.9713C21.2292 10.8983 21.4164 10.8167 21.5547 10.7437C21.5547 10.7437 21.6036 10.7351 21.5952 10.688C23.0679 9.89389 24.7048 9.45951 26.3416 9.02513C27.2537 8.76714 28.174 8.55627 29.0694 8.20405C29.5905 8.01501 29.8265 7.9248 29.8661 7.57772C29.8745 7.62484 29.9233 7.61622 29.9316 7.66334C29.915 7.5691 29.8984 7.47486 29.8818 7.38062C29.8735 7.3335 29.8569 7.23926 29.8485 7.19214ZM27.5382 6.09339C27.4893 6.102 27.4893 6.102 27.4404 6.11062C27.4321 6.0635 27.4238 6.01638 27.4238 6.01638C27.4238 6.01638 27.481 6.05488 27.5382 6.09339Z" fill="white"/>
</svg>
